<?xml version="1.0" encoding="UTF-8"?>
<svg version="1.1" xmlns="http://www.w3.org/2000/svg" width="532" height="469">
<path d="M0 0 C2.47709173 -0.00135743 4.95418326 -0.00313927 7.43127441 -0.00531006 C13.42324527 -0.00937362 19.41519869 -0.00881086 25.40716884 -0.00589742 C30.27988187 -0.00362736 35.15259139 -0.00333776 40.02530479 -0.00442123 C41.0705387 -0.00465108 41.0705387 -0.00465108 42.13688844 -0.00488558 C43.55296185 -0.00520534 44.96903526 -0.00552955 46.38510867 -0.00585817 C59.61881934 -0.00870005 72.85252304 -0.00544572 86.08623257 -0.0000578 C97.42061034 0.004414 108.75497788 0.0036287 120.08935547 -0.00097656 C133.28755842 -0.00633668 146.4857553 -0.00843065 159.68395919 -0.0053643 C161.09292742 -0.00504578 162.50189565 -0.00473141 163.91086388 -0.00442123 C164.60391614 -0.00426696 165.2969684 -0.00411268 166.01102224 -0.00395373 C170.87567966 -0.00309326 175.74033319 -0.00454121 180.60499001 -0.00690079 C187.15749548 -0.01000959 193.70998467 -0.00777405 200.26248932 -0.00200653 C202.66220505 -0.00068789 205.06192242 -0.00105779 207.4616375 -0.0032692 C210.74563098 -0.00601584 214.02956324 -0.00255687 217.31355286 0.00241089 C218.2550076 0.00018017 219.19646235 -0.00205055 220.16644603 -0.00434887 C224.84314727 0.00930298 229.51517624 0.12717351 234.18479443 0.38733101 C235.08489528 0.43259143 235.98499613 0.47785185 236.91237277 0.5244838 C239.13354492 1.12939453 239.13354492 1.12939453 240.4325555 3.0508002 C241.19331659 5.30663122 241.31199639 6.88546883 241.17700195 9.25537109 C241.1157312 10.47281006 241.1157312 10.47281006 241.05322266 11.71484375 C240.97309937 12.97965576 240.97309937 12.97965576 240.89135742 14.27001953 C240.82936157 15.44346924 240.82936157 15.44346924 240.76611328 16.640625 C240.60894948 19.55422175 240.43260775 22.4667585 240.25854492 25.37939453 C239.88729492 31.89689453 239.51604492 38.41439453 239.13354492 45.12939453 C263.22354492 45.12939453 287.31354492 45.12939453 312.13354492 45.12939453 C313.05128357 49.71808779 313.07409496 51.73171287 312.24291992 56.14501953 C312.02933838 57.30622314 311.81575684 58.46742676 311.59570312 59.66381836 C311.36069092 60.8899585 311.12567871 62.11609863 310.88354492 63.37939453 C310.41326187 65.90929952 309.94320921 68.43924736 309.47338867 70.96923828 C309.12703369 72.80977783 309.12703369 72.80977783 308.77368164 74.6875 C307.72035539 80.35103682 306.76875362 86.03137982 305.80932617 91.71142578 C304.96767539 95.96833003 304.08311894 100.23024649 302.13354492 104.12939453 C296.19354492 104.12939453 290.25354492 104.12939453 284.13354492 104.12939453 C284.13354492 176.06939453 284.13354492 248.00939453 284.13354492 322.12939453 C286.44354492 322.45939453 288.75354492 322.78939453 291.13354492 323.12939453 C294.64774573 325.39410172 296.52787425 327.31017355 298.13354492 331.12939453 C298.54418945 333.32763672 298.54418945 333.32763672 298.76635742 335.67626953 C298.89204102 336.94277344 298.89204102 336.94277344 299.02026367 338.23486328 C299.09889648 339.10755859 299.1775293 339.98025391 299.25854492 340.87939453 C299.34491211 341.76755859 299.4312793 342.65572266 299.52026367 343.57080078 C299.73176607 345.75632555 299.93360175 347.94278197 300.13354492 350.12939453 C303.10354492 351.11939453 306.07354492 352.10939453 309.13354492 353.12939453 C309.13354492 353.78939453 309.13354492 354.44939453 309.13354492 355.12939453 C309.79354492 355.12939453 310.45354492 355.12939453 311.13354492 355.12939453 C314.51130284 358.19780333 314.58273433 361.43142599 314.80151367 365.73291016 C314.82858398 366.544375 314.8556543 367.35583984 314.88354492 368.19189453 C314.92608398 369.00722656 314.96862305 369.82255859 315.01245117 370.66259766 C315.16993963 374.2119209 315.27095012 376.71717892 314.13354492 380.12939453 C310.97231992 381.1831362 308.75290834 381.25516825 305.43333435 381.25637817 C304.24570496 381.259198 303.05807556 381.26201782 301.8344574 381.2649231 C300.52993118 381.26289886 299.22540497 381.26087463 297.88134766 381.25878906 C296.49500482 381.26014393 295.10866235 381.26192435 293.72232056 381.26409912 C289.95594615 381.26866283 286.1895991 381.26688836 282.42322421 381.26372004 C278.4856857 381.26119147 274.54814956 381.26353532 270.61061096 381.2651062 C263.99886656 381.26692623 257.38713333 381.26452573 250.77539062 381.25976562 C243.12446525 381.25432108 235.47356652 381.25608773 227.82264179 381.26159203 C221.25954473 381.26612523 214.6964557 381.26677276 208.13335758 381.26415336 C204.21087874 381.26259202 200.28841242 381.26239298 196.36593437 381.26568985 C192.67977141 381.26857163 188.9936429 381.2665872 185.30748367 381.26079559 C183.30402423 381.2588357 181.30056188 381.26181915 179.29710388 381.2649231 C178.11229431 381.26210327 176.92748474 381.25928345 175.70677185 381.25637817 C174.67272941 381.25600115 173.63868696 381.25562412 172.5733099 381.25523567 C170.13354492 381.12939453 170.13354492 381.12939453 168.13354492 380.12939453 C166.27882235 372.56783328 167.74109281 365.13981678 171.08666992 358.13330078 C172.9583978 355.15487666 175.09045955 352.88147399 178.13354492 351.12939453 C179.79406827 350.76669478 181.46063014 350.42980262 183.13354492 350.12939453 C183.15932617 349.06720703 183.18510742 348.00501953 183.21166992 346.91064453 C183.7272736 332.32199207 183.7272736 332.32199207 188.13354492 326.12939453 C191.41220993 323.46547922 194.06011542 322.03362565 198.13354492 321.12939453 C198.15700237 306.63781826 198.1745201 292.14624497 198.18535709 277.65465355 C198.19049293 270.9245477 198.19748337 264.1944537 198.20898438 257.46435547 C198.21990533 250.96098328 198.22584117 244.45762336 198.22842216 237.95424271 C198.23025989 235.48174471 198.23384831 233.00924733 198.23927498 230.53675461 C198.39952273 203.85342721 198.39952273 203.85342721 192.13354492 178.12939453 C191.68881836 176.90736328 191.2440918 175.68533203 190.78588867 174.42626953 C183.49269996 155.97998721 169.62583177 142.60100317 153.13354492 132.12939453 C152.16674805 131.50162109 151.19995117 130.87384766 150.20385742 130.22705078 C142.33197722 125.3524583 133.96485122 121.85758885 125.13354492 119.12939453 C124.50665771 118.93361816 123.87977051 118.7378418 123.23388672 118.53613281 C115.44222738 116.45823253 107.32902009 116.64373724 99.32104492 116.62939453 C98.54175629 116.62738037 97.76246765 116.62536621 96.95956421 116.62329102 C84.19075784 116.64559489 72.92411771 117.88672287 61.13354492 123.12939453 C60.40135742 123.45037109 59.66916992 123.77134766 58.91479492 124.10205078 C54.18497737 126.22547239 49.65244035 128.58946365 45.13354492 131.12939453 C43.91538086 131.78101563 43.91538086 131.78101563 42.67260742 132.44580078 C21.5475698 144.97161305 7.75634286 168.87396332 1.6331768 192.04032421 C-0.37260649 200.42694343 -1.15276808 208.41292189 -1.09350586 217.02661133 C-1.09379791 218.15963181 -1.09408997 219.29265228 -1.09439087 220.46000671 C-1.0930091 224.16628966 -1.07750247 227.87236591 -1.06176758 231.57861328 C-1.05803335 234.16363922 -1.05518831 236.74866659 -1.05319214 239.33369446 C-1.04636318 245.41782979 -1.03063646 251.50188115 -1.01049316 257.585985 C-0.98804172 264.51959241 -0.97711762 271.45320353 -0.96710229 278.38683832 C-0.94626716 292.63439602 -0.91114931 306.88189267 -0.86645508 321.12939453 C3.09354492 322.61439453 3.09354492 322.61439453 7.13354492 324.12939453 C7.13354492 324.78939453 7.13354492 325.44939453 7.13354492 326.12939453 C7.79354492 326.12939453 8.45354492 326.12939453 9.13354492 326.12939453 C13.34064434 331.86634828 14.28059281 335.85144907 14.19604492 342.81689453 C14.1915332 343.51878906 14.18702148 344.22068359 14.18237305 344.94384766 C14.17061419 346.67239991 14.15267946 348.40090819 14.13354492 350.12939453 C15.07069336 350.25443359 16.0078418 350.37947266 16.97338867 350.50830078 C21.90584103 351.47771972 23.80745001 354.17304023 26.55541992 358.22705078 C30.45113317 364.95700484 31.19543547 371.43907141 30.13354492 379.12939453 C27.4614584 381.80148105 26.1748087 381.38283992 22.43969727 381.39009094 C21.22820007 381.39717575 20.01670288 381.40426056 18.76849365 381.41156006 C17.41882287 381.40926605 16.06915244 381.40675632 14.71948242 381.40405273 C13.30372854 381.40839799 11.88797701 381.41358052 10.472229 381.41954041 C6.62106992 381.43296082 2.77000879 381.43350579 -1.08116913 381.43097711 C-4.29213316 381.42990959 -7.50307718 381.43478505 -10.71403694 381.43958253 C-18.28634249 381.45068794 -25.85859844 381.45110913 -33.4309082 381.44506836 C-41.25285294 381.4390246 -49.07461798 381.45134734 -56.89653206 381.47263843 C-63.60399082 381.49022726 -70.31139223 381.49626016 -77.01887321 381.49300069 C-81.02860268 381.49118354 -85.03820393 381.49386674 -89.0479126 381.50771523 C-92.81704319 381.52024517 -96.58589259 381.51839581 -100.35501862 381.50530434 C-101.74098046 381.5029285 -103.1269618 381.50570907 -104.51290131 381.51392746 C-106.39944457 381.52431066 -108.28606721 381.514539 -110.17260742 381.50361633 C-111.23007172 381.50378407 -112.28753601 381.50395182 -113.37704468 381.50412464 C-114.19855011 381.38046371 -115.02005554 381.25680277 -115.86645508 381.12939453 C-119.36707566 375.87846366 -118.2542271 369.42139921 -117.17895508 363.37939453 C-115.77335387 357.70678967 -112.72774949 354.37025747 -107.86645508 351.12939453 C-106.21095977 350.74439562 -104.54421178 350.40146318 -102.86645508 350.12939453 C-102.84518555 348.42783203 -102.84518555 348.42783203 -102.82348633 346.69189453 C-102.43588619 331.7477558 -102.43588619 331.7477558 -98.39770508 326.51220703 C-95.00196594 323.44564669 -91.47682858 322.12939453 -86.86645508 322.12939453 C-86.91112742 320.60025468 -86.91112742 320.60025468 -86.95670223 319.04022312 C-87.70053742 293.16606469 -88.00840774 267.31679549 -87.96784902 241.43272281 C-87.9614273 236.60961488 -87.96099731 231.7865057 -87.95982361 226.96339417 C-87.956764 217.90534912 -87.94862628 208.84731671 -87.93847412 199.78927714 C-87.92714202 189.44511499 -87.9217603 179.10095212 -87.91677868 168.75678527 C-87.9064365 147.54764808 -87.88894587 126.33852211 -87.86645508 105.12939453 C-89.56415039 105.05591797 -89.56415039 105.05591797 -91.29614258 104.98095703 C-92.77793847 104.90592939 -94.25970808 104.83038156 -95.74145508 104.75439453 C-96.48782227 104.72345703 -97.23418945 104.69251953 -98.00317383 104.66064453 C-103.63989258 104.35595703 -103.63989258 104.35595703 -105.86645508 102.12939453 C-106.40394592 100.19638062 -106.40394592 100.19638062 -106.81201172 97.80664062 C-106.96879898 96.91165863 -107.12558624 96.01667664 -107.28712463 95.09457397 C-107.44865524 94.12379913 -107.61018585 93.15302429 -107.77661133 92.15283203 C-107.94897812 91.15361725 -108.12134491 90.15440247 -108.29893494 89.12490845 C-108.84976644 85.91930115 -109.3892482 82.71189146 -109.92895508 79.50439453 C-110.29610029 77.36495252 -110.66393067 75.22562796 -111.0324707 73.08642578 C-111.38529285 71.02533195 -111.73752506 68.96413704 -112.08911133 66.90283203 C-112.25266617 65.94420258 -112.41622101 64.98557312 -112.58473206 63.99789429 C-112.88674372 62.20138465 -113.18177251 60.40368179 -113.46853638 58.60467529 C-113.72720638 56.99560065 -114.00475771 55.38940845 -114.3041687 53.78741455 C-115.17433075 48.61795292 -115.17433075 48.61795292 -113.79620361 46.43104553 C-110.92952924 44.49742077 -108.62691721 44.77004774 -105.19189453 44.78881836 C-104.18174286 44.78816124 -104.18174286 44.78816124 -103.15118408 44.78749084 C-100.92707239 44.78957952 -98.70371619 44.81291303 -96.47973633 44.83642578 C-94.93703117 44.84202148 -93.39432067 44.8462917 -91.85160828 44.84928894 C-87.79248316 44.86073982 -83.73368042 44.89020884 -79.67468262 44.92340088 C-75.53227092 44.95409667 -71.38980711 44.96779321 -67.24731445 44.98291016 C-59.12021344 45.01507854 -50.99337437 45.06627755 -42.86645508 45.12939453 C-42.87692871 43.90309326 -42.88740234 42.67679199 -42.89819336 41.41333008 C-42.93436612 36.86794956 -42.95734565 32.3225818 -42.97631836 27.77709961 C-42.98638215 25.80897889 -43.00003442 23.84087315 -43.01733398 21.87280273 C-43.04156567 19.04553535 -43.05293431 16.21846548 -43.06176758 13.39111328 C-43.07209015 12.50977219 -43.08241272 11.62843109 -43.0930481 10.72038269 C-43.09319916 9.89975845 -43.09335022 9.07913422 -43.09350586 8.23364258 C-43.09794708 7.51194382 -43.10238831 6.79024506 -43.10696411 6.04667664 C-42.86645508 4.12939453 -42.86645508 4.12939453 -40.86645508 1.12939453 C-38.04535389 0.62222481 -38.04535389 0.62222481 -34.29560852 0.44998169 C-33.59426578 0.41687775 -32.89292304 0.38377381 -32.17032748 0.34966671 C-21.45511724 -0.09369014 -10.7218869 -0.00992627 0 0 Z " fill="#A5A5A5" transform="translate(177.866455078125,52.87060546875)"/>
<path d="M0 0 C2.47709173 -0.00135743 4.95418326 -0.00313927 7.43127441 -0.00531006 C13.42324527 -0.00937362 19.41519869 -0.00881086 25.40716884 -0.00589742 C30.27988187 -0.00362736 35.15259139 -0.00333776 40.02530479 -0.00442123 C41.0705387 -0.00465108 41.0705387 -0.00465108 42.13688844 -0.00488558 C43.55296185 -0.00520534 44.96903526 -0.00552955 46.38510867 -0.00585817 C59.61881934 -0.00870005 72.85252304 -0.00544572 86.08623257 -0.0000578 C97.42061034 0.004414 108.75497788 0.0036287 120.08935547 -0.00097656 C133.28755842 -0.00633668 146.4857553 -0.00843065 159.68395919 -0.0053643 C161.09292742 -0.00504578 162.50189565 -0.00473141 163.91086388 -0.00442123 C164.60391614 -0.00426696 165.2969684 -0.00411268 166.01102224 -0.00395373 C170.87567966 -0.00309326 175.74033319 -0.00454121 180.60499001 -0.00690079 C187.15749548 -0.01000959 193.70998467 -0.00777405 200.26248932 -0.00200653 C202.66220505 -0.00068789 205.06192242 -0.00105779 207.4616375 -0.0032692 C210.74563098 -0.00601584 214.02956324 -0.00255687 217.31355286 0.00241089 C218.2550076 0.00018017 219.19646235 -0.00205055 220.16644603 -0.00434887 C224.84314727 0.00930298 229.51517624 0.12717351 234.18479443 0.38733101 C235.08489528 0.43259143 235.98499613 0.47785185 236.91237277 0.5244838 C239.13354492 1.12939453 239.13354492 1.12939453 240.4325555 3.0508002 C241.19331659 5.30663122 241.31199639 6.88546883 241.17700195 9.25537109 C241.1157312 10.47281006 241.1157312 10.47281006 241.05322266 11.71484375 C240.97309937 12.97965576 240.97309937 12.97965576 240.89135742 14.27001953 C240.82936157 15.44346924 240.82936157 15.44346924 240.76611328 16.640625 C240.60894948 19.55422175 240.43260775 22.4667585 240.25854492 25.37939453 C239.88729492 31.89689453 239.51604492 38.41439453 239.13354492 45.12939453 C263.22354492 45.12939453 287.31354492 45.12939453 312.13354492 45.12939453 C313.04107976 49.66706873 313.08314636 51.6107522 312.19604492 55.94189453 C312.00139648 56.91771484 311.80674805 57.89353516 311.60620117 58.89892578 C311.45022461 59.63498047 311.29424805 60.37103516 311.13354492 61.12939453 C310.80354492 61.12939453 310.47354492 61.12939453 310.13354492 61.12939453 C310.13354492 56.83939453 310.13354492 52.54939453 310.13354492 48.12939453 C286.37354492 48.12939453 262.61354492 48.12939453 238.13354492 48.12939453 C237.45159344 33.8084135 237.13354492 19.46660331 237.13354492 5.12939453 C145.72354492 5.12939453 54.31354492 5.12939453 -39.86645508 5.12939453 C-39.86645508 18.98939453 -39.86645508 32.84939453 -39.86645508 47.12939453 C-40.36145508 48.11939453 -40.36145508 48.11939453 -40.86645508 49.12939453 C-64.29645508 49.12939453 -87.72645508 49.12939453 -111.86645508 49.12939453 C-111.20645508 51.76939453 -110.54645508 54.40939453 -109.86645508 57.12939453 C-109.67560197 58.79150771 -109.5220709 60.4589531 -109.42895508 62.12939453 C-109.15761802 65.38050578 -108.66815418 67.95490383 -107.36645508 70.94189453 C-105.3912516 75.61142897 -105.3217391 80.35666053 -105.07739258 85.37158203 C-105.04418859 88.08867593 -105.04418859 88.08867593 -103.86645508 90.12939453 C-103.72784517 94.1324486 -103.82383302 98.12292077 -103.86645508 102.12939453 C-97.92645508 102.12939453 -91.98645508 102.12939453 -85.86645508 102.12939453 C-85.86645508 175.38939453 -85.86645508 248.64939453 -85.86645508 324.12939453 C-88.50645508 324.12939453 -91.14645508 324.12939453 -93.86645508 324.12939453 C-91.21906591 322.66876603 -89.97197174 322.12939453 -86.86645508 322.12939453 C-86.91112742 320.60025468 -86.91112742 320.60025468 -86.95670223 319.04022312 C-87.70053742 293.16606469 -88.00840774 267.31679549 -87.96784902 241.43272281 C-87.9614273 236.60961488 -87.96099731 231.7865057 -87.95982361 226.96339417 C-87.956764 217.90534912 -87.94862628 208.84731671 -87.93847412 199.78927714 C-87.92714202 189.44511499 -87.9217603 179.10095212 -87.91677868 168.75678527 C-87.9064365 147.54764808 -87.88894587 126.33852211 -87.86645508 105.12939453 C-89.56415039 105.05591797 -89.56415039 105.05591797 -91.29614258 104.98095703 C-92.77793847 104.90592939 -94.25970808 104.83038156 -95.74145508 104.75439453 C-96.48782227 104.72345703 -97.23418945 104.69251953 -98.00317383 104.66064453 C-103.63989258 104.35595703 -103.63989258 104.35595703 -105.86645508 102.12939453 C-106.40394592 100.19638062 -106.40394592 100.19638062 -106.81201172 97.80664062 C-106.96879898 96.91165863 -107.12558624 96.01667664 -107.28712463 95.09457397 C-107.44865524 94.12379913 -107.61018585 93.15302429 -107.77661133 92.15283203 C-108.03516151 90.65400986 -108.03516151 90.65400986 -108.29893494 89.12490845 C-108.84976644 85.91930115 -109.3892482 82.71189146 -109.92895508 79.50439453 C-110.29610029 77.36495252 -110.66393067 75.22562796 -111.0324707 73.08642578 C-111.38529285 71.02533195 -111.73752506 68.96413704 -112.08911133 66.90283203 C-112.33444359 65.46488785 -112.33444359 65.46488785 -112.58473206 63.99789429 C-112.88674372 62.20138465 -113.18177251 60.40368179 -113.46853638 58.60467529 C-113.72720638 56.99560065 -114.00475771 55.38940845 -114.3041687 53.78741455 C-115.17433075 48.61795292 -115.17433075 48.61795292 -113.79620361 46.43104553 C-110.92952924 44.49742077 -108.62691721 44.77004774 -105.19189453 44.78881836 C-104.18174286 44.78816124 -104.18174286 44.78816124 -103.15118408 44.78749084 C-100.92707239 44.78957952 -98.70371619 44.81291303 -96.47973633 44.83642578 C-94.93703117 44.84202148 -93.39432067 44.8462917 -91.85160828 44.84928894 C-87.79248316 44.86073982 -83.73368042 44.89020884 -79.67468262 44.92340088 C-75.53227092 44.95409667 -71.38980711 44.96779321 -67.24731445 44.98291016 C-59.12021344 45.01507854 -50.99337437 45.06627755 -42.86645508 45.12939453 C-42.87692871 43.90309326 -42.88740234 42.67679199 -42.89819336 41.41333008 C-42.93436612 36.86794956 -42.95734565 32.3225818 -42.97631836 27.77709961 C-42.98638215 25.80897889 -43.00003442 23.84087315 -43.01733398 21.87280273 C-43.04156567 19.04553535 -43.05293431 16.21846548 -43.06176758 13.39111328 C-43.07209015 12.50977219 -43.08241272 11.62843109 -43.0930481 10.72038269 C-43.09319916 9.89975845 -43.09335022 9.07913422 -43.09350586 8.23364258 C-43.09794708 7.51194382 -43.10238831 6.79024506 -43.10696411 6.04667664 C-42.86645508 4.12939453 -42.86645508 4.12939453 -40.86645508 1.12939453 C-38.04535389 0.62222481 -38.04535389 0.62222481 -34.29560852 0.44998169 C-33.59426578 0.41687775 -32.89292304 0.38377381 -32.17032748 0.34966671 C-21.45511724 -0.09369014 -10.7218869 -0.00992627 0 0 Z " fill="#D3D3D3" transform="translate(177.866455078125,52.87060546875)"/>
<path d="M0 0 C0.33 0 0.66 0 1 0 C0.43424967 5.46891983 -0.21935896 10.92391367 -0.9375 16.375 C-1.09089844 17.55835938 -1.24429687 18.74171875 -1.40234375 19.9609375 C-2 23 -2 23 -4 26 C-9.94 26 -15.88 26 -22 26 C-22 97.94 -22 169.88 -22 244 C-19.69 244.33 -17.38 244.66 -15 245 C-11.48579919 247.26470719 -9.60567067 249.18077902 -8 253 C-7.58935547 255.19824219 -7.58935547 255.19824219 -7.3671875 257.546875 C-7.28339844 258.39121094 -7.19960938 259.23554688 -7.11328125 260.10546875 C-6.99533203 261.41451172 -6.99533203 261.41451172 -6.875 262.75 C-6.78863281 263.63816406 -6.70226562 264.52632813 -6.61328125 265.44140625 C-6.40176934 267.62702936 -6.19759773 269.81308238 -6 272 C-3.69 272.66 -1.38 273.32 1 274 C-2.35001838 275.11667279 -4.59254812 274.76286236 -8 274 C-8.06058594 273.14277344 -8.12117188 272.28554688 -8.18359375 271.40234375 C-8.61143536 265.56395127 -9.059163 259.77942728 -10 254 C-10.66 254 -11.32 254 -12 254 C-12.103125 253.21625 -12.20625 252.4325 -12.3125 251.625 C-12.77595022 248.66954819 -12.77595022 248.66954819 -16 247 C-18.04584079 246.33841957 -18.04584079 246.33841957 -20.1875 245.875 C-21.445625 245.58625 -22.70375 245.2975 -24 245 C-24.02333528 216.6281438 -24.04098228 188.25628902 -24.05181217 159.88442516 C-24.05697379 146.71160245 -24.06401394 133.53878569 -24.07543945 120.3659668 C-24.08539038 108.8877944 -24.09185441 97.40962631 -24.09408849 85.93144971 C-24.0953949 79.85092816 -24.09847638 73.77041895 -24.10573006 67.68990135 C-24.1124967 61.97154219 -24.11461563 56.2532005 -24.11310768 50.53483772 C-24.11338372 48.4317096 -24.11538503 46.32858091 -24.11920547 44.22545624 C-24.12415274 41.36257794 -24.12299441 38.49976631 -24.12025452 35.6368866 C-24.12316736 34.79739839 -24.1260802 33.95791019 -24.12908131 33.09298295 C-24.12052239 29.80296052 -24.0478987 27.14369609 -23 24 C-17.06 24 -11.12 24 -5 24 C-4.01 17.07 -3.02 10.14 -2 3 C-1.34 3 -0.68 3 0 3 C0 2.01 0 1.02 0 0 Z " fill="#BDBDBD" transform="translate(484,131)"/>
<path d="M0 0 C91.74 0 183.48 0 278 0 C278.33 2.97 278.66 5.94 279 9 C279.33 9 279.66 9 280 9 C280.19608413 19.71926563 279.53734478 30.25310443 279 41 C303.09 41 327.18 41 352 41 C352.90753484 45.5376742 352.94960144 47.48135767 352.0625 51.8125 C351.86785156 52.78832031 351.67320312 53.76414063 351.47265625 54.76953125 C351.31667969 55.50558594 351.16070312 56.24164063 351 57 C350.67 57 350.34 57 350 57 C350 52.71 350 48.42 350 44 C326.24 44 302.48 44 278 44 C277.31804852 29.67901897 277 15.33720878 277 1 C185.59 1 94.18 1 0 1 C0 0.67 0 0.34 0 0 Z " fill="#AEAEAE" transform="translate(138,57)"/>
<path d="M0 0 C1.97558594 1.19458008 1.97558594 1.19458008 4 3 C4.45410156 5.26831055 4.45410156 5.26831055 4.390625 7.88671875 C4.37128906 9.2934082 4.37128906 9.2934082 4.3515625 10.72851562 C4.31804687 11.70498047 4.28453125 12.68144531 4.25 13.6875 C4.23195313 14.67556641 4.21390625 15.66363281 4.1953125 16.68164062 C4.14815447 19.12206842 4.08236042 21.56054769 4 24 C4.66 24 5.32 24 6 24 C6.20059907 38.1598166 6.38370968 52.31976634 6.54658794 66.48006916 C6.62272674 73.05480097 6.70451334 79.62936269 6.79907227 86.20385742 C6.89006901 92.54497219 6.96640648 98.88610747 7.03244972 105.22752953 C7.06028664 107.65057173 7.09346484 110.07355847 7.13199425 112.49645424 C7.18493487 115.88216777 7.21912266 119.26757835 7.2487793 122.65356445 C7.26891586 123.66200912 7.28905243 124.6704538 7.30979919 125.7094574 C7.31408936 126.63072418 7.31837952 127.55199097 7.32279968 128.50117493 C7.33800927 129.70273208 7.33800927 129.70273208 7.35352612 130.92856312 C6.90348117 133.56553863 6.13488705 134.42391125 4 136 C1.67284 136.37400786 -0.66117862 136.70764733 -3 137 C-6.05069124 139.03379416 -6.57022125 139.83406134 -8 143 C-8.33 143.33 -8.66 143.66 -9 144 C-9.15620555 145.41327947 -9.25056173 146.8335459 -9.31640625 148.25390625 C-9.35830078 149.10791016 -9.40019531 149.96191406 -9.44335938 150.84179688 C-9.48267578 151.73962891 -9.52199219 152.63746094 -9.5625 153.5625 C-9.60568359 154.46419922 -9.64886719 155.36589844 -9.69335938 156.29492188 C-9.79978142 158.52978485 -9.90179988 160.76476308 -10 163 C-11.43657245 163.33730842 -12.87430093 163.66969591 -14.3125 164 C-15.11300781 164.185625 -15.91351563 164.37125 -16.73828125 164.5625 C-19 165 -19 165 -22 165 C-19.02881405 162.46898975 -16.81583379 161.65179251 -13 161 C-12.97421875 159.9378125 -12.9484375 158.875625 -12.921875 157.78125 C-12.40627133 143.19259754 -12.40627133 143.19259754 -8 137 C-4.721335 134.33608468 -2.07342951 132.90423112 2 132 C2.02345745 117.50842373 2.04097517 103.01685044 2.05181217 88.52525902 C2.05694801 81.79515317 2.06393845 75.06505917 2.07543945 68.33496094 C2.08636041 61.83158875 2.09229624 55.32822883 2.09487724 48.82484818 C2.09671497 46.35235018 2.10030339 43.8798528 2.10573006 41.40736008 C2.52963587 20.58852288 2.52963587 20.58852288 0 0 Z " fill="#BEBEBE" transform="translate(374,242)"/>
<path d="M0 0 C0.66 0.33 1.32 0.66 2 1 C1.195625 2.010625 0.39125 3.02125 -0.4375 4.0625 C-3.08289258 8.18946087 -3.47372412 12.01662933 -3.66015625 16.80859375 C-3.69629028 17.50174683 -3.73242432 18.1948999 -3.76965332 18.90905762 C-3.856634 20.60554625 -3.92973073 22.30273704 -4 24 C5.20810237 24.17993559 14.41644645 24.34501626 23.625 24.5 C24.33025188 24.51187725 25.03550377 24.5237545 25.76212692 24.53599167 C51.86273432 24.97095152 77.9585312 25.08816131 104.0625 25.0625 C104.93956856 25.06164398 105.81663712 25.06078796 106.72028351 25.05990601 C117.48021068 25.048615 128.24010529 25.02868889 139 25 C138.88623383 22.87436897 138.75864369 20.7494739 138.625 18.625 C138.52058594 16.84996094 138.52058594 16.84996094 138.4140625 15.0390625 C138.29782654 11.89437681 138.29782654 11.89437681 136 10 C135.875 7.375 135.875 7.375 136 5 C139.67869369 8.17705365 140.87364611 11.44844856 141.265625 16.26171875 C141.26046875 17.39222656 141.2553125 18.52273438 141.25 19.6875 C141.25773437 21.39486328 141.25773437 21.39486328 141.265625 23.13671875 C141 26 141 26 139 28 C136.5105896 28.25447559 136.5105896 28.25447559 133.30615234 28.26069641 C132.09465515 28.26778122 130.88315796 28.27486603 129.63494873 28.28216553 C128.28527795 28.27987152 126.93560752 28.27736179 125.5859375 28.2746582 C124.17018362 28.27900346 122.75443209 28.28418599 121.33868408 28.29014587 C117.487525 28.30356628 113.63646387 28.30411125 109.78528595 28.30158257 C106.57432192 28.30051506 103.36337789 28.30539052 100.15241814 28.310188 C92.58011259 28.3212934 85.00785664 28.32171459 77.43554688 28.31567383 C69.61360213 28.30963007 61.79183709 28.32195281 53.96992302 28.3432439 C47.26246426 28.36083273 40.55506285 28.36686563 33.84758186 28.36360615 C29.8378524 28.36178901 25.82825115 28.36447221 21.81854248 28.37832069 C18.04941189 28.39085064 14.28056249 28.38900127 10.51143646 28.37590981 C9.12547462 28.37353397 7.73949328 28.37631454 6.35355377 28.38453293 C4.46701051 28.39491613 2.58038787 28.38514447 0.69384766 28.3742218 C-0.36361664 28.37438954 -1.42108093 28.37455729 -2.5105896 28.37473011 C-3.33209503 28.25106917 -4.15360046 28.12740824 -5 28 C-8.50062058 22.74906913 -7.38777202 16.29200467 -6.3125 10.25 C-5.22824196 5.79425344 -3.17241711 3.25590177 0 0 Z " fill="#BDBDBD" transform="translate(67,406)"/>
<path d="M0 0 C0.33 0.66 0.66 1.32 1 2 C0.525625 2.9075 0.05125 3.815 -0.4375 4.75 C-2.80515317 10.4353293 -2.80515317 10.4353293 -2 23 C44.86 23.33 91.72 23.66 140 24 C140 21.69 140 19.38 140 17 C140.99 16.505 140.99 16.505 142 16 C141.67 18.97 141.34 21.94 141 25 C137.83877499 26.05374167 135.61936342 26.12577372 132.29978943 26.12698364 C131.11216003 26.12980347 129.92453064 26.13262329 128.70091248 26.13552856 C127.39638626 26.13350433 126.09186005 26.1314801 124.74780273 26.12939453 C123.3614599 26.1307494 121.97511743 26.13252982 120.58877563 26.13470459 C116.82240123 26.13926829 113.05605418 26.13749383 109.28967929 26.1343255 C105.35214078 26.13179694 101.41460464 26.13414078 97.47706604 26.13571167 C90.86532164 26.13753169 84.25358841 26.1351312 77.6418457 26.13037109 C69.99092033 26.12492655 62.3400216 26.1266932 54.68909687 26.1321975 C48.12599981 26.13673069 41.56291078 26.13737823 34.99981266 26.13475883 C31.07733381 26.13319749 27.1548675 26.13299845 23.23238945 26.13629532 C19.54622648 26.13917709 15.86009798 26.13719267 12.17393875 26.13140106 C10.17047931 26.12944117 8.16701696 26.13242462 6.16355896 26.13552856 C4.97874939 26.13270874 3.79393982 26.12988892 2.57322693 26.12698364 C1.53918448 26.12660662 0.50514204 26.12622959 -0.56023502 26.12584114 C-3 26 -3 26 -5 25 C-6.92416332 17.15533414 -5.33987314 9.16292965 -1.390625 2.13671875 C-0.70226562 1.07904297 -0.70226562 1.07904297 0 0 Z " fill="#CECECE" transform="translate(351,408)"/>
<path d="M0 0 C0.66 0.33 1.32 0.66 2 1 C1.49210937 1.94617188 0.98421875 2.89234375 0.4609375 3.8671875 C-3.37615738 11.17562785 -6.75606545 18.47577763 -9.375 26.3125 C-9.61299316 27.01552246 -9.85098633 27.71854492 -10.09619141 28.44287109 C-13.22528318 38.18208464 -14.29721661 47.69870161 -14.22705078 57.8972168 C-14.22734283 59.03023727 -14.22763489 60.16325775 -14.22793579 61.33061218 C-14.22655402 65.03689513 -14.21104739 68.74297138 -14.1953125 72.44921875 C-14.19157827 75.03424469 -14.18873324 77.61927206 -14.18673706 80.20429993 C-14.1799081 86.28843526 -14.16418139 92.37248661 -14.14403808 98.45659047 C-14.12158664 105.39019788 -14.11066254 112.323809 -14.10064721 119.25744379 C-14.07981208 133.50500149 -14.04469423 147.75249814 -14 162 C-11.36 162.99 -8.72 163.98 -6 165 C-6 165.66 -6 166.32 -6 167 C-5.34 167 -4.68 167 -4 167 C0.20709942 172.73695375 1.14704789 176.72205454 1.0625 183.6875 C1.05798828 184.38939453 1.05347656 185.09128906 1.04882812 185.81445312 C1.03706927 187.54300538 1.01913454 189.27151365 1 191 C2.4540625 191.185625 2.4540625 191.185625 3.9375 191.375 C4.948125 191.58125 5.95875 191.7875 7 192 C7.495 192.99 7.495 192.99 8 194 C5.03 193.67 2.06 193.34 -1 193 C-1.01417969 191.865625 -1.02835938 190.73125 -1.04296875 189.5625 C-1.27231224 180.97591768 -1.46743427 174.95117233 -7 168 C-7 167.34 -7 166.68 -7 166 C-8.11375 166.04125 -9.2275 166.0825 -10.375 166.125 C-14 166 -14 166 -16 164 C-16.25447559 161.85645676 -16.25447559 161.85645676 -16.26069641 159.1461792 C-16.27132362 157.60737091 -16.27132362 157.60737091 -16.28216553 156.03747559 C-16.27968811 154.90716919 -16.27721069 153.77686279 -16.2746582 152.61230469 C-16.27976913 151.42505798 -16.28488007 150.23781128 -16.29014587 149.0145874 C-16.30169466 145.74935991 -16.30410938 142.48428921 -16.30158257 139.21904659 C-16.30051293 136.48639536 -16.30539729 133.7537675 -16.310188 131.02112126 C-16.32130075 124.56061261 -16.32171404 118.10016204 -16.31567383 111.63964844 C-16.30966413 105.00399096 -16.32186385 98.36854714 -16.3432439 91.73292613 C-16.36096364 86.0205987 -16.36684411 80.30833855 -16.36360615 74.5959847 C-16.36180579 71.19172579 -16.36430082 67.78761844 -16.37832069 64.3833847 C-16.47307696 35.35192833 -16.47307696 35.35192833 -13 26 C-12.34 25.34 -11.68 24.68 -11 24 C-10.59952556 21.67724823 -10.2602896 19.34260643 -10 17 C-9.01 16.67 -8.02 16.34 -7 16 C-6.67 13.69 -6.34 11.38 -6 9 C-5.34 9 -4.68 9 -4 9 C-3.71125 8.2575 -3.4225 7.515 -3.125 6.75 C-2.17697356 4.43260203 -1.15154089 2.22082885 0 0 Z " fill="#C9C9C9" transform="translate(191,212)"/>
<path d="M0 0 C0.33 0 0.66 0 1 0 C0.67 9.57 0.34 19.14 0 29 C24.09 29 48.18 29 73 29 C73.90753484 33.5376742 73.94960144 35.48135767 73.0625 39.8125 C72.86785156 40.78832031 72.67320312 41.76414063 72.47265625 42.76953125 C72.23869141 43.87361328 72.23869141 43.87361328 72 45 C71.67 45 71.34 45 71 45 C71 40.71 71 36.42 71 32 C47.24 32 23.48 32 -1 32 C-2 3 -2 3 0 0 Z " fill="#C4C4C4" transform="translate(417,69)"/>
<path d="M0 0 C3.67869369 3.17705365 4.87364611 6.44844856 5.265625 11.26171875 C5.26046875 12.39222656 5.2553125 13.52273438 5.25 14.6875 C5.25773437 16.39486328 5.25773437 16.39486328 5.265625 18.13671875 C5 21 5 21 3 23 C0.98914146 23.24609566 0.98914146 23.24609566 -1.53042603 23.24050903 C-2.48397476 23.24325836 -3.4375235 23.24600769 -4.41996765 23.24884033 C-5.46941055 23.24164978 -6.51885345 23.23445923 -7.60009766 23.22705078 C-8.70254318 23.22734283 -9.80498871 23.22763489 -10.94084167 23.22793579 C-14.59866097 23.22653822 -18.25627862 23.2109568 -21.9140625 23.1953125 C-24.44469084 23.19158389 -26.97532063 23.1887362 -29.50595093 23.18673706 C-35.49476506 23.17987111 -41.48349212 23.16409512 -47.47227132 23.14403808 C-54.28959007 23.12170069 -61.10691225 23.1106911 -67.92425847 23.10064721 C-81.949546 23.07972945 -95.97476902 23.04453999 -110 23 C-110 22.67 -110 22.34 -110 22 C-103.28235263 20.75487919 -96.63841216 20.89114399 -89.82421875 20.9375 C-87.86825755 20.94329008 -85.91229632 20.94907377 -83.95633411 20.95451355 C-79.85141959 20.9675628 -75.74654373 20.98955704 -71.6416626 21.01037598 C-51.2651778 21.17390868 -51.2651778 21.17390868 -30.9120636 20.36244202 C-23.8960336 19.89427755 -16.90354335 19.88778778 -9.875 19.9375 C-7.99361328 19.94426758 -7.99361328 19.94426758 -6.07421875 19.95117188 C-3.04942365 19.96271689 -0.0247415 19.97899036 3 20 C2.88623383 17.87436897 2.75864369 15.7494739 2.625 13.625 C2.52058594 11.84996094 2.52058594 11.84996094 2.4140625 10.0390625 C2.29782654 6.89437681 2.29782654 6.89437681 0 5 C-0.125 2.375 -0.125 2.375 0 0 Z " fill="#D7D7D7" transform="translate(203,411)"/>
<path d="M0 0 C1.96993637 1.17611408 1.96993637 1.17611408 4 3 C4.49219131 5.35254955 4.49219131 5.35254955 4.48101807 8.18217468 C4.48651672 9.25489624 4.49201538 10.3276178 4.49768066 11.43284607 C4.48329956 12.60960403 4.46891846 13.786362 4.45410156 14.9987793 C4.45468567 16.23792084 4.45526978 17.47706238 4.45587158 18.75375366 C4.45356034 22.15260809 4.43348554 25.55049366 4.40557575 28.94917655 C4.38058983 32.50057868 4.37822234 36.05199338 4.37347412 39.60346985 C4.361036 46.32898685 4.32820334 53.05424412 4.28807616 59.77964669 C4.24338425 67.43612397 4.22137795 75.09261357 4.20129442 82.74918878 C4.15947123 98.49960967 4.08910323 114.24977136 4 130 C3.67 130 3.34 130 3 130 C2.27384039 116.53084347 1.8619607 103.10791737 1.92483521 89.61941528 C1.93796525 86.77418276 1.94420322 83.92899845 1.94897461 81.08374023 C1.96021504 75.05580458 1.97948254 69.02791027 2 63 C2.02379971 55.97194693 2.04409157 48.94391673 2.05593872 41.91583252 C2.06231958 39.14095865 2.07481361 36.36615892 2.08764648 33.59130859 C2.26387755 16.69276725 2.26387755 16.69276725 0 0 Z " fill="#DFDFDF" transform="translate(374,242)"/>
<path d="M0 0 C23.76 0 47.52 0 72 0 C72.495 2.475 72.495 2.475 73 5 C72.34 5.33 71.68 5.66 71 6 C71 4.68 71 3.36 71 2 C70.21374741 2.00222061 69.42749481 2.00444122 68.61741638 2.00672913 C61.18794447 2.02681159 53.75848582 2.04201461 46.3289938 2.05181217 C42.50992609 2.0570186 38.69088091 2.06407535 34.87182617 2.07543945 C31.18247826 2.08634821 27.49315194 2.0922937 23.80378914 2.09487724 C22.40007246 2.09671714 20.99635688 2.10030989 19.59264946 2.10573006 C17.6183374 2.11304655 15.64400335 2.11340896 13.66967773 2.11352539 C12.54826889 2.115746 11.42686005 2.11796661 10.27146912 2.12025452 C6.78981162 1.99227378 3.43825905 1.54967698 0 1 C0 0.67 0 0.34 0 0 Z " fill="#DFDFDF" transform="translate(418,98)"/>
<path d="M0 0 C0.33 0 0.66 0 1 0 C0.43424967 5.46891983 -0.21935896 10.92391367 -0.9375 16.375 C-1.09089844 17.55835938 -1.24429687 18.74171875 -1.40234375 19.9609375 C-2 23 -2 23 -4 26 C-5.87939453 26.34057617 -5.87939453 26.34057617 -8.1328125 26.29296875 C-8.93847656 26.28330078 -9.74414062 26.27363281 -10.57421875 26.26367188 C-11.41597656 26.23853516 -12.25773437 26.21339844 -13.125 26.1875 C-14.39923828 26.16719727 -14.39923828 26.16719727 -15.69921875 26.14648438 C-17.79974837 26.11108219 -19.89995293 26.05727401 -22 26 C-22 30.95 -22 35.9 -22 41 C-24 39 -24 39 -24.23046875 36.28515625 C-24.21628906 35.22167969 -24.20210938 34.15820312 -24.1875 33.0625 C-24.18105469 32.00160156 -24.17460937 30.94070312 -24.16796875 29.84765625 C-24 27 -24 27 -23 24 C-17.06 24 -11.12 24 -5 24 C-4.01 17.07 -3.02 10.14 -2 3 C-1.34 3 -0.68 3 0 3 C0 2.01 0 1.02 0 0 Z " fill="#BFBFBF" transform="translate(484,131)"/>
<path d="M0 0 C3.67634698 3.17502694 4.85798046 6.45991796 5.30078125 11.26171875 C5.30658203 12.95748047 5.30658203 12.95748047 5.3125 14.6875 C5.32925781 15.82574219 5.34601563 16.96398437 5.36328125 18.13671875 C5.24339844 19.08160156 5.12351563 20.02648437 5 21 C1.73408387 23.17727742 1.05384964 23.21946621 -2.67578125 23.01171875 C-3.58650391 22.96466797 -4.49722656 22.91761719 -5.43554688 22.86914062 C-6.85963867 22.77922852 -6.85963867 22.77922852 -8.3125 22.6875 C-9.25029297 22.63916016 -10.18808594 22.59082031 -11.15429688 22.54101562 C-15.83309471 22.28053287 -20.3921634 21.90304335 -25 21 C-25 20.67 -25 20.34 -25 20 C-15.76 20 -6.52 20 3 20 C3.50043567 8.06657475 3.50043567 8.06657475 0 5 C-0.125 2.375 -0.125 2.375 0 0 Z " fill="#B7B8B8" transform="translate(203,411)"/>
<path d="M0 0 C1 2 1 2 0.1875 5.0625 C-1 8 -1 8 -3 9 C-3.33 15.27 -3.66 21.54 -4 28 C-13 30 -13 30 -16 30 C-13.02881405 27.46898975 -10.81583379 26.65179251 -7 26 C-6.97421875 24.9378125 -6.9484375 23.875625 -6.921875 22.78125 C-6.33290691 6.33290691 -6.33290691 6.33290691 0 0 Z " fill="#D2D2D2" transform="translate(368,377)"/>
<path d="M0 0 C0.33 0.99 0.66 1.98 1 3 C2.051875 3.0825 3.10375 3.165 4.1875 3.25 C8.34583134 4.0680324 10.03734506 5.03734506 13 8 C14.69655462 10.86458756 15.32065291 13.24690217 15.6328125 16.546875 C15.71660156 17.39121094 15.80039062 18.23554688 15.88671875 19.10546875 C15.96535156 19.97816406 16.04398437 20.85085938 16.125 21.75 C16.21136719 22.63816406 16.29773438 23.52632813 16.38671875 24.44140625 C16.59823066 26.62702936 16.80240227 28.81308238 17 31 C19.31 31.66 21.62 32.32 24 33 C20.64998162 34.11667279 18.40745188 33.76286236 15 33 C14.93941406 32.14277344 14.87882812 31.28554688 14.81640625 30.40234375 C14.38856464 24.56395127 13.940837 18.77942728 13 13 C12.34 13 11.68 13 11 13 C10.896875 12.21625 10.79375 11.4325 10.6875 10.625 C10.22404978 7.66954819 10.22404978 7.66954819 7 6 C4.67891331 5.29187186 2.34622853 4.61975848 0 4 C0 2.68 0 1.36 0 0 Z " fill="#C9C9C9" transform="translate(461,372)"/>
<path d="M0 0 C0.33 0.66 0.66 1.32 1 2 C0.525625 2.9075 0.05125 3.815 -0.4375 4.75 C-3.10207016 10.43037912 -2.22914361 16.88101702 -2 23 C1.16245541 24.0541518 3.86948218 24.31275672 7.1875 24.5625 C8.27417969 24.64628906 9.36085938 24.73007812 10.48046875 24.81640625 C11.31191406 24.87699219 12.14335937 24.93757813 13 25 C13 25.33 13 25.66 13 26 C10.37493198 26.02690844 7.75013827 26.04679404 5.125 26.0625 C4.37863281 26.07087891 3.63226563 26.07925781 2.86328125 26.08789062 C-2.7734375 26.11328125 -2.7734375 26.11328125 -5 25 C-6.92416332 17.15533414 -5.33987314 9.16292965 -1.390625 2.13671875 C-0.70226562 1.07904297 -0.70226562 1.07904297 0 0 Z " fill="#DADBDC" transform="translate(351,408)"/>
<path d="M0 0 C0.66 0.33 1.32 0.66 2 1 C1.195625 1.969375 0.39125 2.93875 -0.4375 3.9375 C-3.28395353 8.42208348 -3.67915805 12.69429833 -4 17.875 C-4.05341553 18.63675537 -4.10683105 19.39851074 -4.16186523 20.18334961 C-4.29948207 22.61018484 -4.29948207 22.61018484 -4 26 C-3.01 26.66 -2.02 27.32 -1 28 C-3.4375 27.625 -3.4375 27.625 -6 27 C-8.68934104 21.62131791 -7.15389546 13.70770542 -5.77734375 8.05078125 C-4.50417121 4.69190898 -2.49198334 2.55756185 0 0 Z " fill="#C9C9C9" transform="translate(67,406)"/>
<path d="M0 0 C0.66 0.33 1.32 0.66 2 1 C1.48050781 1.99257812 0.96101562 2.98515625 0.42578125 4.0078125 C-4.12310416 12.82618921 -7.93122723 21.55762226 -11 31 C-11.66 31 -12.32 31 -13 31 C-13.125 28.625 -13.125 28.625 -13 26 C-12.34 25.34 -11.68 24.68 -11 24 C-10.59952556 21.67724823 -10.2602896 19.34260643 -10 17 C-9.01 16.67 -8.02 16.34 -7 16 C-6.67 13.69 -6.34 11.38 -6 9 C-5.34 9 -4.68 9 -4 9 C-3.71125 8.2575 -3.4225 7.515 -3.125 6.75 C-2.17697356 4.43260203 -1.15154089 2.22082885 0 0 Z " fill="#C3C3C3" transform="translate(191,212)"/>
<path d="M0 0 C0.66 0.33 1.32 0.66 2 1 C1.360625 1.7425 0.72125 2.485 0.0625 3.25 C-2.62625331 6.83500442 -3.08679184 9.67770602 -3.28125 14.07421875 C-3.31863281 14.82380859 -3.35601562 15.57339844 -3.39453125 16.34570312 C-3.46537047 17.91859616 -3.5356752 19.49151335 -3.60546875 21.06445312 C-3.89789724 26.89789724 -3.89789724 26.89789724 -5 28 C-7.33297433 28.04092937 -9.66705225 28.04241723 -12 28 C-12 27.67 -12 27.34 -12 27 C-10.35 26.67 -8.7 26.34 -7 26 C-6.97873047 24.2984375 -6.97873047 24.2984375 -6.95703125 22.5625 C-6.53065232 6.53065232 -6.53065232 6.53065232 0 0 Z " fill="#C6C6C6" transform="translate(82,377)"/>
<path d="M0 0 C2 2 2 2 2.1953125 4.8203125 C2.13020833 7.88020833 2.06510417 10.94010417 2 14 C7.94 14 13.88 14 20 14 C19.67 15.32 19.34 16.64 19 18 C18.67 17.67 18.34 17.34 18 17 C15.32939127 16.78916247 12.6747865 16.62408803 10 16.5 C2.13513514 16.13513514 2.13513514 16.13513514 1 15 C0.76346477 12.47403741 0.57826308 9.96892793 0.4375 7.4375 C0.39431641 6.72658203 0.35113281 6.01566406 0.30664062 5.28320312 C0.20028223 3.52238088 0.09961154 1.7612168 0 0 Z " fill="#C0C0C0" transform="translate(72,141)"/>
<path d="M0 0 C0.33 0 0.66 0 1 0 C0.43004509 5.50956416 -0.22420954 11.00710182 -0.9375 16.5 C-1.09089844 17.7065625 -1.24429687 18.913125 -1.40234375 20.15625 C-1.59957031 21.0946875 -1.79679687 22.033125 -2 23 C-2.66 23.33 -3.32 23.66 -4 24 C-4.24091535 16.7725395 -3.34495828 10.09705662 -2 3 C-1.34 3 -0.68 3 0 3 C0 2.01 0 1.02 0 0 Z " fill="#C9CCCA" transform="translate(484,131)"/>
<path d="M0 0 C2.76683076 2.38953566 3.88205053 4.53050164 5 8 C5.1953125 11.33203125 5.1953125 11.33203125 5.125 14.8125 C5.10695312 15.97394531 5.08890625 17.13539063 5.0703125 18.33203125 C5.04710937 19.21246094 5.02390625 20.09289062 5 21 C4.34 21.33 3.68 21.66 3 22 C2.95101562 20.94039063 2.90203125 19.88078125 2.8515625 18.7890625 C2.77653291 17.40101503 2.70098515 16.01299549 2.625 14.625 C2.5940625 13.92632812 2.563125 13.22765625 2.53125 12.5078125 C2.40500502 8.29814173 2.40500502 8.29814173 0 5 C-0.125 2.375 -0.125 2.375 0 0 Z " fill="#DEE4E8" transform="translate(203,411)"/>
<path d="M0 0 C1.32 0.33 2.64 0.66 4 1 C3.11957031 1.53109375 2.23914063 2.0621875 1.33203125 2.609375 C0.15874318 3.32273415 -1.01442769 4.0362861 -2.1875 4.75 C-2.76564453 5.09804687 -3.34378906 5.44609375 -3.93945312 5.8046875 C-7.50733057 7.98169747 -10.79429514 10.31952362 -14 13 C-14 10 -14 10 -11.75 7.3125 C-9 5 -9 5 -5 5 C-5 4.01 -5 3.02 -5 2 C-3.35 2 -1.7 2 0 2 C0 1.34 0 0.68 0 0 Z " fill="#C4C4C4" transform="translate(224,180)"/>
<path d="M0 0 C-3.46309873 2.30873249 -7.05988867 3.63573343 -10.9375 5.0625 C-11.65357422 5.33126953 -12.36964844 5.60003906 -13.10742188 5.87695312 C-16.38574354 7.09530992 -19.59205082 8.19554848 -23 9 C-21 6 -21 6 -17.875 5.3125 C-16.92625 5.209375 -15.9775 5.10625 -15 5 C-15 4.34 -15 3.68 -15 3 C-13.02 3 -11.04 3 -9 3 C-9 2.34 -9 1.68 -9 1 C-5.8035914 -0.06546953 -3.34252724 -0.07427838 0 0 Z " fill="#C4C4C4" transform="translate(251,171)"/>
<path d="M0 0 C0.33 0 0.66 0 1 0 C1 5.61 1 11.22 1 17 C-7.625 19 -7.625 19 -11 19 C-7.45040296 15.85997185 -6.19608198 15.86601366 -1 15 C-0.67 10.05 -0.34 5.1 0 0 Z " fill="#C5C5C5" transform="translate(363,388)"/>
<path d="M0 0 C2.64 0.33 5.28 0.66 8 1 C8 1.66 8 2.32 8 3 C9.11375 3.1546875 9.11375 3.1546875 10.25 3.3125 C13.1973519 4.04933797 14.78383074 4.94799142 17 7 C17 7.66 17 8.32 17 9 C13.10391502 7.51095825 9.40902982 5.75621287 5.6875 3.875 C4.61886719 3.33617187 3.55023438 2.79734375 2.44921875 2.2421875 C1.64097656 1.83226562 0.83273437 1.42234375 0 1 C0 0.67 0 0.34 0 0 Z " fill="#C7C7C7" transform="translate(316,176)"/>
<path d="M0 0 C3.55285394 3.61952948 3.53872077 7.43805462 3.6875 12.25 C3.72166016 12.99507812 3.75582031 13.74015625 3.79101562 14.5078125 C3.87314054 16.33802492 3.93825653 18.16898669 4 20 C1.86168417 16.79252626 1.46552015 14.88370763 0.875 11.125 C0.70742187 10.09632812 0.53984375 9.06765625 0.3671875 8.0078125 C0.03629634 5.29732111 -0.07041464 2.72605266 0 0 Z " fill="#D4D4D4" transform="translate(65,110)"/>
<path d="M0 0 C1.984375 1.11328125 1.984375 1.11328125 4 3 C4.390625 5.91796875 4.390625 5.91796875 4.25 9.1875 C4.21390625 10.27417969 4.1778125 11.36085937 4.140625 12.48046875 C4.09421875 13.31191406 4.0478125 14.14335937 4 15 C2.1866078 11.79989612 1.47786026 8.86716157 0.875 5.25 C0.70742188 4.26515625 0.53984375 3.2803125 0.3671875 2.265625 C0.24601562 1.51796875 0.12484375 0.7703125 0 0 Z " fill="#C5C5C5" transform="translate(374,242)"/>
<path d="M0 0 C1.32 0.33 2.64 0.66 4 1 C2.88121617 2.17262904 1.75476949 3.33795138 0.625 4.5 C-0.00148437 5.1496875 -0.62796875 5.799375 -1.2734375 6.46875 C-3 8 -3 8 -5 8 C-4.34 6.35 -3.68 4.7 -3 3 C-2.01 3 -1.02 3 0 3 C0 2.01 0 1.02 0 0 Z " fill="#D2D2D2" transform="translate(206,193)"/>
<path d="M0 0 C4.95 0 9.9 0 15 0 C15 0.33 15 0.66 15 1 C9.72 1.66 4.44 2.32 -1 3 C-0.67 2.01 -0.34 1.02 0 0 Z " fill="#C3C3C3" transform="translate(254,168)"/>
<path d="M0 0 C3.93809611 3.76687454 3.93809611 3.76687454 4.09765625 6.9453125 C4.06510417 8.96354167 4.03255208 10.98177083 4 13 C3.67 13 3.34 13 3 13 C2.690625 11.865625 2.38125 10.73125 2.0625 9.5625 C1.37075469 6.21224901 1.37075469 6.21224901 0 5 C-0.04063832 3.33382885 -0.042721 1.66611905 0 0 Z " fill="#C7C7CB" transform="translate(203,411)"/>
<path d="M0 0 C0.33 0 0.66 0 1 0 C1.36923077 7.50769231 1.36923077 7.50769231 -0.5 10 C-0.995 10.33 -1.49 10.66 -2 11 C-2.25 3.375 -2.25 3.375 0 0 Z " fill="#BFBFBF" transform="translate(417,69)"/>
<path d="M0 0 C0.66 0.33 1.32 0.66 2 1 C1.21654285 2.17219543 0.42297164 3.33763668 -0.375 4.5 C-0.81585938 5.1496875 -1.25671875 5.799375 -1.7109375 6.46875 C-2.13632813 6.9740625 -2.56171875 7.479375 -3 8 C-3.66 8 -4.32 8 -5 8 C-3.8141763 4.62496331 -2.72426311 2.35277269 0 0 Z " fill="#CFCFCF" transform="translate(67,406)"/>
<path d="M0 0 C2.0343459 1.41519715 2.90410393 2.54982123 3.421875 4.98046875 C3.66273952 6.98176954 3.83532741 8.9909944 4 11 C3.71125 10.38125 3.4225 9.7625 3.125 9.125 C2.06279958 6.86674235 2.06279958 6.86674235 0 5 C-0.125 2.375 -0.125 2.375 0 0 Z " fill="#DADADA" transform="translate(188,382)"/>
<path d="M0 0 C0.66 0 1.32 0 2 0 C2.99 3.3 3.98 6.6 5 10 C4.01 9.67 3.02 9.34 2 9 C1.26953125 6.93359375 1.26953125 6.93359375 0.8125 4.4375 C0.65394531 3.61121094 0.49539063 2.78492188 0.33203125 1.93359375 C0.16767578 0.97646484 0.16767578 0.97646484 0 0 Z " fill="#C4C4C4" transform="translate(370,228)"/>
</svg>
