<?xml version="1.0" encoding="UTF-8"?>
<svg version="1.1" xmlns="http://www.w3.org/2000/svg" width="532" height="469" viewBox="0 0 532 469">
<path d="M0 0 C2.47709173 -0.00135743 4.95418326 -0.00313927 7.43127441 -0.00531006 C13.42324527 -0.00937362 19.41519869 -0.00881086 25.40716884 -0.00589742 C30.27988187 -0.00362736 35.15259139 -0.00333776 40.02530479 -0.00442123 C41.0705387 -0.00465108 41.0705387 -0.00465108 42.13688844 -0.00488558 C43.55296185 -0.00520534 44.96903526 -0.00552955 46.38510867 -0.00585817 C59.61881934 -0.00870005 72.85252304 -0.00544572 86.08623257 -0.0000578 C97.42061034 0.004414 108.75497788 0.0036287 120.08935547 -0.00097656 C133.28755842 -0.00633668 146.4857553 -0.00843065 159.68395919 -0.0053643 C161.09292742 -0.00504578 162.50189565 -0.00473141 163.91086388 -0.00442123 C164.60391614 -0.00426696 165.2969684 -0.00411268 166.01102224 -0.00395373 C170.87567966 -0.00309326 175.74033319 -0.00454121 180.60499001 -0.00690079 C187.15749548 -0.01000959 193.70998467 -0.00777405 200.26248932 -0.00200653 C202.66220505 -0.00068789 205.06192242 -0.00105779 207.4616375 -0.0032692 C210.74563098 -0.00601584 214.02956324 -0.00255687 217.31355286 0.00241089 C218.2550076 0.00018017 219.19646235 -0.00205055 220.16644603 -0.00434887 C224.84314727 0.00930298 229.51517624 0.12717351 234.18479443 0.38733101 C235.08489528 0.43259143 235.98499613 0.47785185 236.91237277 0.5244838 C239.13354492 1.12939453 239.13354492 1.12939453 240.4325555 3.0508002 C241.19331659 5.30663122 241.31199639 6.88546883 241.17700195 9.25537109 C241.1157312 10.47281006 241.1157312 10.47281006 241.05322266 11.71484375 C240.97309937 12.97965576 240.97309937 12.97965576 240.89135742 14.27001953 C240.82936157 15.44346924 240.82936157 15.44346924 240.76611328 16.640625 C240.60894948 19.55422175 240.43260775 22.4667585 240.25854492 25.37939453 C239.88729492 31.89689453 239.51604492 38.41439453 239.13354492 45.12939453 C263.22354492 45.12939453 287.31354492 45.12939453 312.13354492 45.12939453 C313.05128357 49.71808779 313.07409496 51.73171287 312.24291992 56.14501953 C312.02933838 57.30622314 311.81575684 58.46742676 311.59570312 59.66381836 C311.36069092 60.8899585 311.12567871 62.11609863 310.88354492 63.37939453 C310.41326187 65.90929952 309.94320921 68.43924736 309.47338867 70.96923828 C309.12703369 72.80977783 309.12703369 72.80977783 308.77368164 74.6875 C307.72035539 80.35103682 306.76875362 86.03137982 305.80932617 91.71142578 C304.96767539 95.96833003 304.08311894 100.23024649 302.13354492 104.12939453 C296.19354492 104.12939453 290.25354492 104.12939453 284.13354492 104.12939453 C284.13354492 176.06939453 284.13354492 248.00939453 284.13354492 322.12939453 C286.44354492 322.45939453 288.75354492 322.78939453 291.13354492 323.12939453 C294.64774573 325.39410172 296.52787425 327.31017355 298.13354492 331.12939453 C298.54418945 333.32763672 298.54418945 333.32763672 298.76635742 335.67626953 C298.89204102 336.94277344 298.89204102 336.94277344 299.02026367 338.23486328 C299.09889648 339.10755859 299.1775293 339.98025391 299.25854492 340.87939453 C299.34491211 341.76755859 299.4312793 342.65572266 299.52026367 343.57080078 C299.73176607 345.75632555 299.93360175 347.94278197 300.13354492 350.12939453 C303.10354492 351.11939453 306.07354492 352.10939453 309.13354492 353.12939453 C309.13354492 353.78939453 309.13354492 354.44939453 309.13354492 355.12939453 C309.79354492 355.12939453 310.45354492 355.12939453 311.13354492 355.12939453 C314.51130284 358.19780333 314.58273433 361.43142599 314.80151367 365.73291016 C314.82858398 366.544375 314.8556543 367.35583984 314.88354492 368.19189453 C314.92608398 369.00722656 314.96862305 369.82255859 315.01245117 370.66259766 C315.16993963 374.2119209 315.27095012 376.71717892 314.13354492 380.12939453 C310.97231992 381.1831362 308.75290834 381.25516825 305.43333435 381.25637817 C304.24570496 381.259198 303.05807556 381.26201782 301.8344574 381.2649231 C300.52993118 381.26289886 299.22540497 381.26087463 297.88134766 381.25878906 C296.49500482 381.26014393 295.10866235 381.26192435 293.72232056 381.26409912 C289.95594615 381.26866283 286.1895991 381.26688836 282.42322421 381.26372004 C278.4856857 381.26119147 274.54814956 381.26353532 270.61061096 381.2651062 C263.99886656 381.26692623 257.38713333 381.26452573 250.77539062 381.25976562 C243.12446525 381.25432108 235.47356652 381.25608773 227.82264179 381.26159203 C221.25954473 381.26612523 214.6964557 381.26677276 208.13335758 381.26415336 C204.21087874 381.26259202 200.28841242 381.26239298 196.36593437 381.26568985 C192.67977141 381.26857163 188.9936429 381.2665872 185.30748367 381.26079559 C183.30402423 381.2588357 181.30056188 381.26181915 179.29710388 381.2649231 C178.11229431 381.26210327 176.92748474 381.25928345 175.70677185 381.25637817 C174.67272941 381.25600115 173.63868696 381.25562412 172.5733099 381.25523567 C170.13354492 381.12939453 170.13354492 381.12939453 168.13354492 380.12939453 C166.27882235 372.56783328 167.74109281 365.13981678 171.08666992 358.13330078 C172.9583978 355.15487666 175.09045955 352.88147399 178.13354492 351.12939453 C179.79406827 350.76669478 181.46063014 350.42980262 183.13354492 350.12939453 C183.15932617 349.06720703 183.18510742 348.00501953 183.21166992 346.91064453 C183.7272736 332.32199207 183.7272736 332.32199207 188.13354492 326.12939453 C191.41220993 323.46547922 194.06011542 322.03362565 198.13354492 321.12939453 C198.15700237 306.63781826 198.1745201 292.14624497 198.18535709 277.65465355 C198.19049293 270.9245477 198.19748337 264.1944537 198.20898438 257.46435547 C198.21990533 250.96098328 198.22584117 244.45762336 198.22842216 237.95424271 C198.23025989 235.48174471 198.23384831 233.00924733 198.23927498 230.53675461 C198.39952273 203.85342721 198.39952273 203.85342721 192.13354492 178.12939453 C191.68881836 176.90736328 191.2440918 175.68533203 190.78588867 174.42626953 C183.49269996 155.97998721 169.62583177 142.60100317 153.13354492 132.12939453 C152.16674805 131.50162109 151.19995117 130.87384766 150.20385742 130.22705078 C142.33197722 125.3524583 133.96485122 121.85758885 125.13354492 119.12939453 C124.50665771 118.93361816 123.87977051 118.7378418 123.23388672 118.53613281 C115.44222738 116.45823253 107.32902009 116.64373724 99.32104492 116.62939453 C98.54175629 116.62738037 97.76246765 116.62536621 96.95956421 116.62329102 C84.19075784 116.64559489 72.92411771 117.88672287 61.13354492 123.12939453 C60.40135742 123.45037109 59.66916992 123.77134766 58.91479492 124.10205078 C54.18497737 126.22547239 49.65244035 128.58946365 45.13354492 131.12939453 C43.91538086 131.78101563 43.91538086 131.78101563 42.67260742 132.44580078 C21.5475698 144.97161305 7.75634286 168.87396332 1.6331768 192.04032421 C-0.37260649 200.42694343 -1.15276808 208.41292189 -1.09350586 217.02661133 C-1.09379791 218.15963181 -1.09408997 219.29265228 -1.09439087 220.46000671 C-1.0930091 224.16628966 -1.07750247 227.87236591 -1.06176758 231.57861328 C-1.05803335 234.16363922 -1.05518831 236.74866659 -1.05319214 239.33369446 C-1.04636318 245.41782979 -1.03063646 251.50188115 -1.01049316 257.585985 C-0.98804172 264.51959241 -0.97711762 271.45320353 -0.96710229 278.38683832 C-0.94626716 292.63439602 -0.91114931 306.88189267 -0.86645508 321.12939453 C3.09354492 322.61439453 3.09354492 322.61439453 7.13354492 324.12939453 C7.13354492 324.78939453 7.13354492 325.44939453 7.13354492 326.12939453 C7.79354492 326.12939453 8.45354492 326.12939453 9.13354492 326.12939453 C13.34064434 331.86634828 14.28059281 335.85144907 14.19604492 342.81689453 C14.1915332 343.51878906 14.18702148 344.22068359 14.18237305 344.94384766 C14.17061419 346.67239991 14.15267946 348.40090819 14.13354492 350.12939453 C15.07069336 350.25443359 16.0078418 350.37947266 16.97338867 350.50830078 C21.90584103 351.47771972 23.80745001 354.17304023 26.55541992 358.22705078 C30.45113317 364.95700484 31.19543547 371.43907141 30.13354492 379.12939453 C27.4614584 381.80148105 26.1748087 381.38283992 22.43969727 381.39009094 C21.22820007 381.39717575 20.01670288 381.40426056 18.76849365 381.41156006 C17.41882287 381.40926605 16.06915244 381.40675632 14.71948242 381.40405273 C13.30372854 381.40839799 11.88797701 381.41358052 10.472229 381.41954041 C6.62106992 381.43296082 2.77000879 381.43350579 -1.08116913 381.43097711 C-4.29213316 381.42990959 -7.50307718 381.43478505 -10.71403694 381.43958253 C-18.28634249 381.45068794 -25.85859844 381.45110913 -33.4309082 381.44506836 C-41.25285294 381.4390246 -49.07461798 381.45134734 -56.89653206 381.47263843 C-63.60399082 381.49022726 -70.31139223 381.49626016 -77.01887321 381.49300069 C-81.02860268 381.49118354 -85.03820393 381.49386674 -89.0479126 381.50771523 C-92.81704319 381.52024517 -96.58589259 381.51839581 -100.35501862 381.50530434 C-101.74098046 381.5029285 -103.1269618 381.50570907 -104.51290131 381.51392746 C-106.39944457 381.52431066 -108.28606721 381.514539 -110.17260742 381.50361633 C-111.23007172 381.50378407 -112.28753601 381.50395182 -113.37704468 381.50412464 C-114.19855011 381.38046371 -115.02005554 381.25680277 -115.86645508 381.12939453 C-119.36707566 375.87846366 -118.2542271 369.42139921 -117.17895508 363.37939453 C-115.77335387 357.70678967 -112.72774949 354.37025747 -107.86645508 351.12939453 C-106.21095977 350.74439562 -104.54421178 350.40146318 -102.86645508 350.12939453 C-102.84518555 348.42783203 -102.84518555 348.42783203 -102.82348633 346.69189453 C-102.43588619 331.7477558 -102.43588619 331.7477558 -98.39770508 326.51220703 C-95.00196594 323.44564669 -91.47682858 322.12939453 -86.86645508 322.12939453 C-86.91112742 320.60025468 -86.91112742 320.60025468 -86.95670223 319.04022312 C-87.70053742 293.16606469 -88.00840774 267.31679549 -87.96784902 241.43272281 C-87.9614273 236.60961488 -87.96099731 231.7865057 -87.95982361 226.96339417 C-87.956764 217.90534912 -87.94862628 208.84731671 -87.93847412 199.78927714 C-87.92714202 189.44511499 -87.9217603 179.10095212 -87.91677868 168.75678527 C-87.9064365 147.54764808 -87.88894587 126.33852211 -87.86645508 105.12939453 C-89.56415039 105.05591797 -89.56415039 105.05591797 -91.29614258 104.98095703 C-92.77793847 104.90592939 -94.25970808 104.83038156 -95.74145508 104.75439453 C-96.48782227 104.72345703 -97.23418945 104.69251953 -98.00317383 104.66064453 C-103.63989258 104.35595703 -103.63989258 104.35595703 -105.86645508 102.12939453 C-106.40394592 100.19638062 -106.40394592 100.19638062 -106.81201172 97.80664062 C-106.96879898 96.91165863 -107.12558624 96.01667664 -107.28712463 95.09457397 C-107.44865524 94.12379913 -107.61018585 93.15302429 -107.77661133 92.15283203 C-107.94897812 91.15361725 -108.12134491 90.15440247 -108.29893494 89.12490845 C-108.84976644 85.91930115 -109.3892482 82.71189146 -109.92895508 79.50439453 C-110.29610029 77.36495252 -110.66393067 75.22562796 -111.0324707 73.08642578 C-111.38529285 71.02533195 -111.73752506 68.96413704 -112.08911133 66.90283203 C-112.25266617 65.94420258 -112.41622101 64.98557312 -112.58473206 63.99789429 C-112.88674372 62.20138465 -113.18177251 60.40368179 -113.46853638 58.60467529 C-113.72720638 56.99560065 -114.00475771 55.38940845 -114.3041687 53.78741455 C-115.17433075 48.61795292 -115.17433075 48.61795292 -113.79620361 46.43104553 C-110.92952924 44.49742077 -108.62691721 44.77004774 -105.19189453 44.78881836 C-104.18174286 44.78816124 -104.18174286 44.78816124 -103.15118408 44.78749084 C-100.92707239 44.78957952 -98.70371619 44.81291303 -96.47973633 44.83642578 C-94.93703117 44.84202148 -93.39432067 44.8462917 -91.85160828 44.84928894 C-87.79248316 44.86073982 -83.73368042 44.89020884 -79.67468262 44.92340088 C-75.53227092 44.95409667 -71.38980711 44.96779321 -67.24731445 44.98291016 C-59.12021344 45.01507854 -50.99337437 45.06627755 -42.86645508 45.12939453 C-42.87692871 43.90309326 -42.88740234 42.67679199 -42.89819336 41.41333008 C-42.93436612 36.86794956 -42.95734565 32.3225818 -42.97631836 27.77709961 C-42.98638215 25.80897889 -43.00003442 23.84087315 -43.01733398 21.87280273 C-43.04156567 19.04553535 -43.05293431 16.21846548 -43.06176758 13.39111328 C-43.07209015 12.50977219 -43.08241272 11.62843109 -43.0930481 10.72038269 C-43.09319916 9.89975845 -43.09335022 9.07913422 -43.09350586 8.23364258 C-43.09794708 7.51194382 -43.10238831 6.79024506 -43.10696411 6.04667664 C-42.86645508 4.12939453 -42.86645508 4.12939453 -40.86645508 1.12939453 C-38.04535389 0.62222481 -38.04535389 0.62222481 -34.29560852 0.44998169 C-33.59426578 0.41687775 -32.89292304 0.38377381 -32.17032748 0.34966671 C-21.45511724 -0.09369014 -10.7218869 -0.00992627 0 0 Z " fill="#000000" transform="translate(177.866455078125,52.87060546875)"/>
</svg>
